<svg xmlns="http://www.w3.org/2000/svg" width="124.102" height="72" viewBox="0 0 124.102 72">
  <path id="expressjs-logo" d="M124.1,76.843c-4.514,1.148-7.307.05-9.812-3.711L96.474,48.482,93.9,45.069,73.092,73.213c-2.377,3.386-4.871,4.859-9.308,3.661L90.428,41.11,65.623,8.8c4.266-.83,7.213-.407,9.831,3.413l18.48,24.956,18.615-24.82c2.385-3.386,4.949-4.673,9.23-3.424L112.161,21.68,99.131,38.647c-1.551,1.939-1.338,3.265.089,5.139ZM.031,40.512l2.18-10.719C8.144,8.579,32.46-.236,49.23,12.873c9.8,7.71,12.236,18.615,11.751,30.832H5.74c-.83,21.989,15,35.261,35.175,28.489,7.078-2.377,11.247-7.919,13.333-14.853,1.059-3.475,2.812-4.018,6.077-3.025-1.668,8.672-5.429,15.916-13.38,20.45-11.879,6.787-28.834,4.592-37.754-4.84C3.878,64.453,1.683,57.518.7,50.1.543,48.878.233,47.71,0,46.535q.031-3.009.031-6.019Zm5.81-1.474h49.92C55.435,23.138,45.534,11.845,32,11.748,17.149,11.632,6.484,22.657,5.841,39.039Z" transform="translate(0 -6.711)" fill="#fff"/>
</svg>
