<svg id="visual" viewBox="0 0 960 300" width="960" height="300" xmlns="http://www.w3.org/2000/svg" xmlns:xlink="http://www.w3.org/1999/xlink" version="1.1"><rect x="0" y="0" width="960" height="300" fill="#001220"></rect><path d="M0 103L22.8 105.7C45.7 108.3 91.3 113.7 137 115.3C182.7 117 228.3 115 274 110.2C319.7 105.3 365.3 97.7 411.2 96.5C457 95.3 503 100.7 548.8 105.3C594.7 110 640.3 114 686 112.5C731.7 111 777.3 104 823 102.3C868.7 100.7 914.3 104.3 937.2 106.2L960 108L960 0L937.2 0C914.3 0 868.7 0 823 0C777.3 0 731.7 0 686 0C640.3 0 594.7 0 548.8 0C503 0 457 0 411.2 0C365.3 0 319.7 0 274 0C228.3 0 182.7 0 137 0C91.3 0 45.7 0 22.8 0L0 0Z" fill="#6999fa"></path><path d="M0 62L22.8 68.3C45.7 74.7 91.3 87.3 137 93.3C182.7 99.3 228.3 98.7 274 95.2C319.7 91.7 365.3 85.3 411.2 85.2C457 85 503 91 548.8 91.7C594.7 92.3 640.3 87.7 686 86C731.7 84.3 777.3 85.7 823 85C868.7 84.3 914.3 81.7 937.2 80.3L960 79L960 0L937.2 0C914.3 0 868.7 0 823 0C777.3 0 731.7 0 686 0C640.3 0 594.7 0 548.8 0C503 0 457 0 411.2 0C365.3 0 319.7 0 274 0C228.3 0 182.7 0 137 0C91.3 0 45.7 0 22.8 0L0 0Z" fill="#547ff1"></path><path d="M0 44L22.8 49.7C45.7 55.3 91.3 66.7 137 68.7C182.7 70.7 228.3 63.3 274 59.8C319.7 56.3 365.3 56.7 411.2 60.5C457 64.3 503 71.7 548.8 75C594.7 78.3 640.3 77.7 686 72.2C731.7 66.7 777.3 56.3 823 50.8C868.7 45.3 914.3 44.7 937.2 44.3L960 44L960 0L937.2 0C914.3 0 868.7 0 823 0C777.3 0 731.7 0 686 0C640.3 0 594.7 0 548.8 0C503 0 457 0 411.2 0C365.3 0 319.7 0 274 0C228.3 0 182.7 0 137 0C91.3 0 45.7 0 22.8 0L0 0Z" fill="#4565e6"></path><path d="M0 35L22.8 35.3C45.7 35.7 91.3 36.3 137 37.7C182.7 39 228.3 41 274 44.3C319.7 47.7 365.3 52.3 411.2 52.2C457 52 503 47 548.8 44.3C594.7 41.7 640.3 41.3 686 39.8C731.7 38.3 777.3 35.7 823 38C868.7 40.3 914.3 47.7 937.2 51.3L960 55L960 0L937.2 0C914.3 0 868.7 0 823 0C777.3 0 731.7 0 686 0C640.3 0 594.7 0 548.8 0C503 0 457 0 411.2 0C365.3 0 319.7 0 274 0C228.3 0 182.7 0 137 0C91.3 0 45.7 0 22.8 0L0 0Z" fill="#3f48d8"></path><path d="M0 19L22.8 18.3C45.7 17.7 91.3 16.3 137 15.7C182.7 15 228.3 15 274 14.8C319.7 14.7 365.3 14.3 411.2 14.2C457 14 503 14 548.8 15.8C594.7 17.7 640.3 21.3 686 22.5C731.7 23.7 777.3 22.3 823 21.2C868.7 20 914.3 19 937.2 18.5L960 18L960 0L937.2 0C914.3 0 868.7 0 823 0C777.3 0 731.7 0 686 0C640.3 0 594.7 0 548.8 0C503 0 457 0 411.2 0C365.3 0 319.7 0 274 0C228.3 0 182.7 0 137 0C91.3 0 45.7 0 22.8 0L0 0Z" fill="#4124c7"></path></svg>