<svg id="visual" viewBox="0 0 960 300" width="960" height="300" xmlns="http://www.w3.org/2000/svg" xmlns:xlink="http://www.w3.org/1999/xlink" version="1.1"><rect x="0" y="0" width="960" height="300" fill="#001220"></rect><path d="M0 124L22.8 127.2C45.7 130.3 91.3 136.7 137 138.7C182.7 140.7 228.3 138.3 274 132.7C319.7 127 365.3 118 411.2 116.7C457 115.3 503 121.7 548.8 127.2C594.7 132.7 640.3 137.3 686 135.5C731.7 133.7 777.3 125.3 823 123.3C868.7 121.3 914.3 125.7 937.2 127.8L960 130L960 0L937.2 0C914.3 0 868.7 0 823 0C777.3 0 731.7 0 686 0C640.3 0 594.7 0 548.8 0C503 0 457 0 411.2 0C365.3 0 319.7 0 274 0C228.3 0 182.7 0 137 0C91.3 0 45.7 0 22.8 0L0 0Z" fill="#6999fa"></path><path d="M0 75L22.8 82.5C45.7 90 91.3 105 137 112.2C182.7 119.3 228.3 118.7 274 114.5C319.7 110.3 365.3 102.7 411.2 102.5C457 102.3 503 109.7 548.8 110.5C594.7 111.3 640.3 105.7 686 103.7C731.7 101.7 777.3 103.3 823 102.3C868.7 101.3 914.3 97.7 937.2 95.8L960 94L960 0L937.2 0C914.3 0 868.7 0 823 0C777.3 0 731.7 0 686 0C640.3 0 594.7 0 548.8 0C503 0 457 0 411.2 0C365.3 0 319.7 0 274 0C228.3 0 182.7 0 137 0C91.3 0 45.7 0 22.8 0L0 0Z" fill="#547ff1"></path><path d="M0 53L22.8 59.8C45.7 66.7 91.3 80.3 137 82.7C182.7 85 228.3 76 274 71.7C319.7 67.3 365.3 67.7 411.2 72.3C457 77 503 86 548.8 90.2C594.7 94.3 640.3 93.7 686 87C731.7 80.3 777.3 67.7 823 61C868.7 54.3 914.3 53.7 937.2 53.3L960 53L960 0L937.2 0C914.3 0 868.7 0 823 0C777.3 0 731.7 0 686 0C640.3 0 594.7 0 548.8 0C503 0 457 0 411.2 0C365.3 0 319.7 0 274 0C228.3 0 182.7 0 137 0C91.3 0 45.7 0 22.8 0L0 0Z" fill="#4565e6"></path><path d="M0 42L22.8 42.5C45.7 43 91.3 44 137 45.5C182.7 47 228.3 49 274 53C319.7 57 365.3 63 411.2 62.8C457 62.7 503 56.3 548.8 53C594.7 49.7 640.3 49.3 686 47.5C731.7 45.7 777.3 42.3 823 45.2C868.7 48 914.3 57 937.2 61.5L960 66L960 0L937.2 0C914.3 0 868.7 0 823 0C777.3 0 731.7 0 686 0C640.3 0 594.7 0 548.8 0C503 0 457 0 411.2 0C365.3 0 319.7 0 274 0C228.3 0 182.7 0 137 0C91.3 0 45.7 0 22.8 0L0 0Z" fill="#3f48d8"></path><path d="M0 23L22.8 22.3C45.7 21.7 91.3 20.3 137 19.5C182.7 18.7 228.3 18.3 274 18C319.7 17.7 365.3 17.3 411.2 17.2C457 17 503 17 548.8 19.3C594.7 21.7 640.3 26.3 686 27.7C731.7 29 777.3 27 823 25.5C868.7 24 914.3 23 937.2 22.5L960 22L960 0L937.2 0C914.3 0 868.7 0 823 0C777.3 0 731.7 0 686 0C640.3 0 594.7 0 548.8 0C503 0 457 0 411.2 0C365.3 0 319.7 0 274 0C228.3 0 182.7 0 137 0C91.3 0 45.7 0 22.8 0L0 0Z" fill="#4124c7"></path></svg>