<svg xmlns="http://www.w3.org/2000/svg" width="127.965" height="127.965" viewBox="0 0 127.965 127.965">
  <g id="Group_1" data-name="Group 1" transform="translate(-1485.5 -1843.5)">
    <circle id="Ellipse_6" data-name="Ellipse 6" cx="61" cy="61" r="61" transform="translate(1488.5 1846.5)" fill="#fff"/>
    <g id="nextjs-logo" transform="translate(1485.5 1843.5)">
      <path id="Path_53" data-name="Path 53" d="M59.792.034c-.275.025-1.151.113-1.939.175A64.137,64.137,0,0,0,11.871,26.724,63.327,63.327,0,0,0,.575,54.677,48.964,48.964,0,0,0,0,63.995a48.964,48.964,0,0,0,.575,9.318A64.241,64.241,0,0,0,44.344,125a67.655,67.655,0,0,0,13.509,2.8,117.881,117.881,0,0,0,12.259,0,64.608,64.608,0,0,0,23.054-6.741c1.1-.563,1.313-.713,1.163-.838-.1-.075-4.791-6.366-10.42-13.97L73.677,92.436,60.855,73.463C53.8,63.032,48,54.5,47.946,54.5s-.1,8.417-.125,18.71c-.038,18.022-.05,18.748-.275,19.173a2.273,2.273,0,0,1-1.1,1.138c-.4.2-.751.238-2.639.238H41.642l-.575-.363a2.339,2.339,0,0,1-.838-.913l-.263-.563.025-25.076.038-25.089.388-.488a3.431,3.431,0,0,1,.926-.763c.513-.25.713-.275,2.877-.275,2.552,0,2.977.1,3.64.825.188.2,7.13,10.656,15.436,23.25S82.958,94.1,88.537,102.541l10.132,15.346.513-.338a65.68,65.68,0,0,0,13.147-11.531,63.685,63.685,0,0,0,15.061-32.706,48.965,48.965,0,0,0,.575-9.318,48.965,48.965,0,0,0-.575-9.318A64.241,64.241,0,0,0,83.621,2.986,67.183,67.183,0,0,0,70.3.2C69.1.072,60.83-.066,59.792.034Zm26.193,38.7a2.524,2.524,0,0,1,1.263,1.476c.1.325.125,7.279.1,22.95l-.038,22.487-3.965-6.078-3.978-6.078V57.141c0-10.568.05-16.509.125-16.8a2.552,2.552,0,0,1,1.238-1.576c.513-.263.7-.288,2.664-.288C85.247,38.481,85.572,38.506,85.985,38.731Z" transform="translate(0 0)"/>
    </g>
  </g>
</svg>
