<svg id="visual" viewBox="0 0 960 300" width="960" height="300" xmlns="http://www.w3.org/2000/svg" xmlns:xlink="http://www.w3.org/1999/xlink" version="1.1"><rect x="0" y="0" width="960" height="300" fill="#001220"></rect><path d="M0 211L22.8 215.5C45.7 220 91.3 229 137 227.7C182.7 226.3 228.3 214.7 274 213.8C319.7 213 365.3 223 411.2 222.8C457 222.7 503 212.3 548.8 213C594.7 213.7 640.3 225.3 686 226.2C731.7 227 777.3 217 823 214.8C868.7 212.7 914.3 218.3 937.2 221.2L960 224L960 301L937.2 301C914.3 301 868.7 301 823 301C777.3 301 731.7 301 686 301C640.3 301 594.7 301 548.8 301C503 301 457 301 411.2 301C365.3 301 319.7 301 274 301C228.3 301 182.7 301 137 301C91.3 301 45.7 301 22.8 301L0 301Z" fill="#cacaca"></path><path d="M0 250L22.8 249.8C45.7 249.7 91.3 249.3 137 247.2C182.7 245 228.3 241 274 239.3C319.7 237.7 365.3 238.3 411.2 236.3C457 234.3 503 229.7 548.8 229.7C594.7 229.7 640.3 234.3 686 237.8C731.7 241.3 777.3 243.7 823 241.7C868.7 239.7 914.3 233.3 937.2 230.2L960 227L960 301L937.2 301C914.3 301 868.7 301 823 301C777.3 301 731.7 301 686 301C640.3 301 594.7 301 548.8 301C503 301 457 301 411.2 301C365.3 301 319.7 301 274 301C228.3 301 182.7 301 137 301C91.3 301 45.7 301 22.8 301L0 301Z" fill="#d7d7d7"></path><path d="M0 251L22.8 249C45.7 247 91.3 243 137 242.2C182.7 241.3 228.3 243.7 274 243C319.7 242.3 365.3 238.7 411.2 237.5C457 236.3 503 237.7 548.8 238.5C594.7 239.3 640.3 239.7 686 239.7C731.7 239.7 777.3 239.3 823 242.7C868.7 246 914.3 253 937.2 256.5L960 260L960 301L937.2 301C914.3 301 868.7 301 823 301C777.3 301 731.7 301 686 301C640.3 301 594.7 301 548.8 301C503 301 457 301 411.2 301C365.3 301 319.7 301 274 301C228.3 301 182.7 301 137 301C91.3 301 45.7 301 22.8 301L0 301Z" fill="#e4e4e4"></path><path d="M0 259L22.8 260C45.7 261 91.3 263 137 264.7C182.7 266.3 228.3 267.7 274 268.3C319.7 269 365.3 269 411.2 269.3C457 269.7 503 270.3 548.8 270.3C594.7 270.3 640.3 269.7 686 269C731.7 268.3 777.3 267.7 823 268C868.7 268.3 914.3 269.7 937.2 270.3L960 271L960 301L937.2 301C914.3 301 868.7 301 823 301C777.3 301 731.7 301 686 301C640.3 301 594.7 301 548.8 301C503 301 457 301 411.2 301C365.3 301 319.7 301 274 301C228.3 301 182.7 301 137 301C91.3 301 45.7 301 22.8 301L0 301Z" fill="#f1f1f1"></path><path d="M0 287L22.8 284.5C45.7 282 91.3 277 137 275.2C182.7 273.3 228.3 274.7 274 277.2C319.7 279.7 365.3 283.3 411.2 283C457 282.7 503 278.3 548.8 276.7C594.7 275 640.3 276 686 276.7C731.7 277.3 777.3 277.7 823 278.7C868.7 279.7 914.3 281.3 937.2 282.2L960 283L960 301L937.2 301C914.3 301 868.7 301 823 301C777.3 301 731.7 301 686 301C640.3 301 594.7 301 548.8 301C503 301 457 301 411.2 301C365.3 301 319.7 301 274 301C228.3 301 182.7 301 137 301C91.3 301 45.7 301 22.8 301L0 301Z" fill="#ffffff"></path></svg>